<svg width="129" height="23" viewBox="0 0 129 23" fill="none" xmlns="http://www.w3.org/2000/svg">
<path d="M34.1875 17C34.082 16.8066 33.9883 16.5225 33.9062 16.1475C33.3613 16.833 32.5996 17.1758 31.6211 17.1758C30.7246 17.1758 29.9629 16.9062 29.3359 16.3672C28.709 15.8223 28.3955 15.1396 28.3955 14.3193C28.3955 13.2881 28.7764 12.5088 29.5381 11.9814C30.2998 11.4541 31.4072 11.1904 32.8604 11.1904H33.7744V10.6895C33.7744 9.81641 33.3965 9.37988 32.6406 9.37988C31.9375 9.37988 31.5859 9.72559 31.5859 10.417H28.624C28.624 9.49707 29.0137 8.75 29.793 8.17578C30.5781 7.60156 31.5771 7.31445 32.79 7.31445C34.0029 7.31445 34.9609 7.61035 35.6641 8.20215C36.3672 8.79395 36.7275 9.60547 36.7451 10.6367V14.8467C36.7568 15.7197 36.8916 16.3877 37.1494 16.8506V17H34.1875ZM32.333 15.0664C32.7021 15.0664 33.0068 14.9873 33.2471 14.8291C33.4932 14.6709 33.6689 14.4922 33.7744 14.293V12.7725H32.9131C31.8818 12.7725 31.3662 13.2354 31.3662 14.1611C31.3662 14.4307 31.457 14.6504 31.6387 14.8203C31.8203 14.9844 32.0518 15.0664 32.333 15.0664ZM44.1455 10.1709L43.1699 10.1006C42.2383 10.1006 41.6406 10.3936 41.377 10.9795V17H38.415V7.49023H41.1924L41.2891 8.71191C41.7871 7.78027 42.4814 7.31445 43.3721 7.31445C43.6885 7.31445 43.9639 7.34961 44.1982 7.41992L44.1455 10.1709ZM44.5234 12.1572C44.5234 11.208 44.708 10.3643 45.0771 9.62598C45.4463 8.88184 45.9766 8.31055 46.668 7.91211C47.3594 7.51367 48.1709 7.31445 49.1025 7.31445C50.5264 7.31445 51.6484 7.75684 52.4688 8.6416C53.2891 9.52051 53.6992 10.7188 53.6992 12.2363V12.3418C53.6992 13.8242 53.2861 15.002 52.46 15.875C51.6396 16.7422 50.5264 17.1758 49.1201 17.1758C47.7666 17.1758 46.6797 16.7715 45.8594 15.9629C45.0391 15.1484 44.5967 14.0469 44.5322 12.6582L44.5234 12.1572ZM47.4854 12.3418C47.4854 13.2207 47.623 13.8652 47.8984 14.2754C48.1738 14.6855 48.5811 14.8906 49.1201 14.8906C50.1748 14.8906 50.7139 14.0791 50.7373 12.4561V12.1572C50.7373 10.4521 50.1924 9.59961 49.1025 9.59961C48.1123 9.59961 47.5762 10.335 47.4941 11.8057L47.4854 12.3418ZM57.8037 7.49023L57.9004 8.60645C58.5742 7.74512 59.4795 7.31445 60.6162 7.31445C61.8174 7.31445 62.6289 7.79199 63.0508 8.74707C63.6953 7.79199 64.627 7.31445 65.8457 7.31445C67.7734 7.31445 68.7637 8.48047 68.8164 10.8125V17H65.8457V10.9971C65.8457 10.5107 65.7637 10.1562 65.5996 9.93359C65.4355 9.71094 65.1367 9.59961 64.7031 9.59961C64.1172 9.59961 63.6807 9.86035 63.3936 10.3818L63.4023 10.5049V17H60.4316V11.0146C60.4316 10.5166 60.3525 10.1562 60.1943 9.93359C60.0361 9.71094 59.7344 9.59961 59.2891 9.59961C58.7207 9.59961 58.2871 9.86035 57.9883 10.3818V17H55.0264V7.49023H57.8037ZM75.8652 17C75.7598 16.8066 75.666 16.5225 75.584 16.1475C75.0391 16.833 74.2773 17.1758 73.2988 17.1758C72.4023 17.1758 71.6406 16.9062 71.0137 16.3672C70.3867 15.8223 70.0732 15.1396 70.0732 14.3193C70.0732 13.2881 70.4541 12.5088 71.2158 11.9814C71.9775 11.4541 73.085 11.1904 74.5381 11.1904H75.4521V10.6895C75.4521 9.81641 75.0742 9.37988 74.3184 9.37988C73.6152 9.37988 73.2637 9.72559 73.2637 10.417H70.3018C70.3018 9.49707 70.6914 8.75 71.4707 8.17578C72.2559 7.60156 73.2549 7.31445 74.4678 7.31445C75.6807 7.31445 76.6387 7.61035 77.3418 8.20215C78.0449 8.79395 78.4053 9.60547 78.4229 10.6367V14.8467C78.4346 15.7197 78.5693 16.3877 78.8271 16.8506V17H75.8652ZM74.0107 15.0664C74.3799 15.0664 74.6846 14.9873 74.9248 14.8291C75.1709 14.6709 75.3467 14.4922 75.4521 14.293V12.7725H74.5908C73.5596 12.7725 73.0439 13.2354 73.0439 14.1611C73.0439 14.4307 73.1348 14.6504 73.3164 14.8203C73.498 14.9844 73.7295 15.0664 74.0107 15.0664ZM84.0918 14.8906C84.5078 14.8906 84.8301 14.7793 85.0586 14.5566C85.2871 14.3281 85.3984 14.0117 85.3926 13.6074H88.1699C88.1699 14.6504 87.7949 15.5059 87.0449 16.1738C86.3008 16.8418 85.3398 17.1758 84.1621 17.1758C82.7793 17.1758 81.6895 16.7422 80.8926 15.875C80.0957 15.0078 79.6973 13.8066 79.6973 12.2715V12.1484C79.6973 11.1875 79.873 10.3408 80.2246 9.6084C80.582 8.87012 81.0947 8.30469 81.7627 7.91211C82.4307 7.51367 83.2217 7.31445 84.1357 7.31445C85.3721 7.31445 86.3535 7.65723 87.0801 8.34277C87.8066 9.02832 88.1699 9.95703 88.1699 11.1289H85.3926C85.3926 10.6367 85.2725 10.2588 85.0322 9.99512C84.792 9.73145 84.4697 9.59961 84.0654 9.59961C83.2979 9.59961 82.8496 10.0889 82.7207 11.0674C82.6797 11.3779 82.6592 11.8057 82.6592 12.3506C82.6592 13.3057 82.7734 13.9678 83.002 14.3369C83.2305 14.7061 83.5938 14.8906 84.0918 14.8906ZM89.0488 12.1572C89.0488 11.208 89.2334 10.3643 89.6025 9.62598C89.9717 8.88184 90.502 8.31055 91.1934 7.91211C91.8848 7.51367 92.6963 7.31445 93.6279 7.31445C95.0518 7.31445 96.1738 7.75684 96.9941 8.6416C97.8145 9.52051 98.2246 10.7188 98.2246 12.2363V12.3418C98.2246 13.8242 97.8115 15.002 96.9854 15.875C96.165 16.7422 95.0518 17.1758 93.6455 17.1758C92.292 17.1758 91.2051 16.7715 90.3848 15.9629C89.5645 15.1484 89.1221 14.0469 89.0576 12.6582L89.0488 12.1572ZM92.0107 12.3418C92.0107 13.2207 92.1484 13.8652 92.4238 14.2754C92.6992 14.6855 93.1064 14.8906 93.6455 14.8906C94.7002 14.8906 95.2393 14.0791 95.2627 12.4561V12.1572C95.2627 10.4521 94.7178 9.59961 93.6279 9.59961C92.6377 9.59961 92.1016 10.335 92.0195 11.8057L92.0107 12.3418ZM105.194 15.9717C104.567 16.7744 103.721 17.1758 102.654 17.1758C101.611 17.1758 100.82 16.874 100.281 16.2705C99.748 15.6611 99.4814 14.7881 99.4814 13.6514V7.49023H102.443V13.6689C102.443 14.4834 102.839 14.8906 103.63 14.8906C104.31 14.8906 104.793 14.6475 105.08 14.1611V7.49023H108.06V17H105.282L105.194 15.9717ZM113.711 14.8906C114.127 14.8906 114.449 14.7793 114.678 14.5566C114.906 14.3281 115.018 14.0117 115.012 13.6074H117.789C117.789 14.6504 117.414 15.5059 116.664 16.1738C115.92 16.8418 114.959 17.1758 113.781 17.1758C112.398 17.1758 111.309 16.7422 110.512 15.875C109.715 15.0078 109.316 13.8066 109.316 12.2715V12.1484C109.316 11.1875 109.492 10.3408 109.844 9.6084C110.201 8.87012 110.714 8.30469 111.382 7.91211C112.05 7.51367 112.841 7.31445 113.755 7.31445C114.991 7.31445 115.973 7.65723 116.699 8.34277C117.426 9.02832 117.789 9.95703 117.789 11.1289H115.012C115.012 10.6367 114.892 10.2588 114.651 9.99512C114.411 9.73145 114.089 9.59961 113.685 9.59961C112.917 9.59961 112.469 10.0889 112.34 11.0674C112.299 11.3779 112.278 11.8057 112.278 12.3506C112.278 13.3057 112.393 13.9678 112.621 14.3369C112.85 14.7061 113.213 14.8906 113.711 14.8906ZM121.938 8.50977C122.57 7.71289 123.379 7.31445 124.363 7.31445C125.412 7.31445 126.203 7.625 126.736 8.24609C127.27 8.86719 127.542 9.78418 127.554 10.9971V17H124.583V11.0674C124.583 10.5635 124.48 10.1943 124.275 9.95996C124.07 9.71973 123.722 9.59961 123.229 9.59961C122.62 9.59961 122.189 9.79297 121.938 10.1797V17H118.976V3.5H121.938V8.50977Z" fill="white"/>
<path d="M6.5025 4.6L4.0025 6L5.4025 3.5L4.0025 1L6.5025 2.4L9.0025 1L7.6025 3.5L9.0025 6L6.5025 4.6ZM18.5025 14.4L21.0025 13L19.6025 15.5L21.0025 18L18.5025 16.6L16.0025 18L17.4025 15.5L16.0025 13L18.5025 14.4ZM21.0025 1L19.6025 3.5L21.0025 6L18.5025 4.6L16.0025 6L17.4025 3.5L16.0025 1L18.5025 2.4L21.0025 1ZM12.3425 11.78L14.7825 9.34L12.6625 7.22L10.2225 9.66L12.3425 11.78ZM13.3725 6.29L15.7125 8.63C16.1025 9 16.1025 9.65 15.7125 10.04L4.0425 21.71C3.6525 22.1 3.0025 22.1 2.6325 21.71L0.2925 19.37C-0.0975 19 -0.0975 18.35 0.2925 17.96L11.9625 6.29C12.3525 5.9 13.0025 5.9 13.3725 6.29Z" fill="white"/>
</svg>
