<svg width="61" height="21" viewBox="0 0 61 21" fill="none" xmlns="http://www.w3.org/2000/svg">
<path d="M37.0127 6.58496H33.1719V17H30.0869V6.58496H26.3164V4.20312H37.0127V6.58496ZM48.5088 6.58496H44.668V17H41.583V6.58496H37.8125V4.20312H48.5088V6.58496ZM59.9258 12.667C59.8848 13.5576 59.6445 14.3457 59.2051 15.0312C58.7656 15.7109 58.1475 16.2383 57.3506 16.6133C56.5596 16.9883 55.6543 17.1758 54.6348 17.1758C52.9531 17.1758 51.6289 16.6279 50.6621 15.5322C49.6953 14.4365 49.2119 12.8896 49.2119 10.8916V10.2588C49.2119 9.00488 49.4287 7.90918 49.8623 6.97168C50.3018 6.02832 50.9316 5.30176 51.752 4.79199C52.5723 4.27637 53.5215 4.01855 54.5996 4.01855C56.1523 4.01855 57.4004 4.42871 58.3438 5.24902C59.2871 6.06348 59.8232 7.18848 59.9521 8.62402H56.876C56.8525 7.84473 56.6562 7.28516 56.2871 6.94531C55.918 6.60547 55.3555 6.43555 54.5996 6.43555C53.832 6.43555 53.2695 6.72266 52.9121 7.29688C52.5547 7.87109 52.3672 8.78809 52.3496 10.0479V10.9531C52.3496 12.3184 52.5195 13.2939 52.8594 13.8799C53.2051 14.4658 53.7969 14.7588 54.6348 14.7588C55.3438 14.7588 55.8857 14.5918 56.2607 14.2578C56.6357 13.9238 56.835 13.3936 56.8584 12.667H59.9258Z" fill="#214295"/>
<path d="M12.8388 0L10.0088 2.83C9.23878 3.61 9.23878 4.88 10.0088 5.66L11.4188 7.07L6.86878 11.62L4.04878 8.79L2.62878 10.19C-2.32122 15.19 1.23878 18.69 1.23878 18.69C1.23878 18.69 4.73878 22.19 9.73878 17.28L11.1488 15.87L8.34878 13.07L12.8888 8.53L14.2788 9.92C15.0588 10.69 16.3288 10.69 17.1088 9.92L19.9388 7.09L12.8388 0ZM15.6688 8.47L14.2888 7.09L12.8488 5.65L11.4488 4.25L12.8588 2.84L17.0888 7.07L15.6688 8.47Z" fill="#214295"/>
</svg>
